{
    "asset": {
        "generator": "COLLADA2GLTF",
        "version": "2.0"
    },
    "scenes": [
        {
            "nodes": [
                0
            ]
        }
    ],
    "scene": 0,
    "nodes": [
        {
            "children": [
                2,
                1
            ],
            "matrix": [
                1.0,
                0.0,
                0.0,
                0.0,
                0.0,
                0.0,
                -1.0,
                0.0,
                0.0,
                1.0,
                0.0,
                0.0,
                0.0,
                0.0,
                0.0,
                1.0
            ],
            "name": "Z_UP"
        },
        {
            "matrix": [
                0.6859207153320313,
                0.7276763319969177,
                0.0,
                0.0,
                -0.32401350140571597,
                0.30542081594467165,
                0.8953956365585327,
                0.0,
                0.6515582203865051,
                -0.6141704320907593,
                0.44527140259742739,
                0.0,
                7.358891010284424,
                -6.925790786743164,
                4.958309173583984,
                1.0
            ],
            "camera": 0,
            "name": "Camera"
        },
        {
            "mesh": 0,
            "matrix": [
                1.0,
                0.0,
                0.0,
                0.0,
                0.0,
                0.5,
                0.0,
                0.0,
                0.0,
                0.0,
                1.0,
                0.0,
                0.0,
                0.0,
                0.0,
                1.0
            ],
            "name": "Plane"
        }
    ],
    "cameras": [
        {
            "perspective": {
                "yfov": 0.3887495994567871,
                "zfar": 100.0,
                "znear": 0.10000000149011612
            },
            "type": "perspective",
            "name": "Camera"
        }
    ],
    "meshes": [
        {
            "primitives": [
                {
                    "attributes": {
                        "NORMAL": 1,
                        "POSITION": 2
                    },
                    "indices": 0,
                    "mode": 4,
                    "material": 0
                },
                {
                    "attributes": {
                        "NORMAL": 4,
                        "POSITION": 5
                    },
                    "indices": 3,
                    "mode": 4,
                    "material": 1
                },
                {
                    "attributes": {
                        "NORMAL": 7,
                        "POSITION": 8
                    },
                    "indices": 6,
                    "mode": 4,
                    "material": 2
                },
                {
                    "attributes": {
                        "NORMAL": 10,
                        "POSITION": 11
                    },
                    "indices": 9,
                    "mode": 4,
                    "material": 3
                },
                {
                    "attributes": {
                        "NORMAL": 13,
                        "POSITION": 14
                    },
                    "indices": 12,
                    "mode": 4,
                    "material": 4
                },
                {
                    "attributes": {
                        "NORMAL": 16,
                        "POSITION": 17
                    },
                    "indices": 15,
                    "mode": 4,
                    "material": 5
                }
            ],
            "name": "Plane"
        }
    ],
    "accessors": [
        {
            "bufferView": 0,
            "byteOffset": 0,
            "componentType": 5123,
            "count": 246,
            "max": [
                238
            ],
            "min": [
                0
            ],
            "type": "SCALAR"
        },
        {
            "bufferView": 1,
            "byteOffset": 0,
            "componentType": 5126,
            "count": 239,
            "max": [
                0.9623875021934508,
                0.8320779204368591,
                0.9279115200042724
            ],
            "min": [
                -0.962387204170227,
                -0.8173478841781616,
                -0.9279125332832336
            ],
            "type": "VEC3"
        },
        {
            "bufferView": 1,
            "byteOffset": 2868,
            "componentType": 5126,
            "count": 239,
            "max": [
                0.4020099937915802,
                1.2040289640426636,
                0.8793367147445679
            ],
            "min": [
                -0.7509139180183411,
                -1.1964770555496216,
                -1.022348999977112
            ],
            "type": "VEC3"
        },
        {
            "bufferView": 0,
            "byteOffset": 492,
            "componentType": 5123,
            "count": 6,
            "max": [
                3
            ],
            "min": [
                0
            ],
            "type": "SCALAR"
        },
        {
            "bufferView": 1,
            "byteOffset": 5736,
            "componentType": 5126,
            "count": 4,
            "max": [
                0.9026728272438048,
                -0.16243310272693638,
                0.3984940052032471
            ],
            "min": [
                0.9026727080345154,
                -0.1624332070350647,
                0.3984940052032471
            ],
            "type": "VEC3"
        },
        {
            "bufferView": 1,
            "byteOffset": 5784,
            "componentType": 5126,
            "count": 4,
            "max": [
                0.3750768899917603,
                1.0930010080337525,
                0.8370074033737183
            ],
            "min": [
                -0.644354522228241,
                -1.1427619457244874,
                -0.9448676109313964
            ],
            "type": "VEC3"
        },
        {
            "bufferView": 0,
            "byteOffset": 504,
            "componentType": 5123,
            "count": 6,
            "max": [
                5
            ],
            "min": [
                0
            ],
            "type": "SCALAR"
        },
        {
            "bufferView": 1,
            "byteOffset": 5832,
            "componentType": 5126,
            "count": 6,
            "max": [
                0.5761458277702332,
                0.816906213760376,
                0.02684991993010044
            ],
            "min": [
                0.5761454105377197,
                0.8169059753417969,
                0.026849260553717618
            ],
            "type": "VEC3"
        },
        {
            "bufferView": 1,
            "byteOffset": 5904,
            "componentType": 5126,
            "count": 6,
            "max": [
                -0.2255140990018845,
                1.162192940711975,
                0.7050632238388062
            ],
            "min": [
                -0.3317221105098725,
                1.091312050819397,
                0.5393310785293579
            ],
            "type": "VEC3"
        },
        {
            "bufferView": 0,
            "byteOffset": 516,
            "componentType": 5123,
            "count": 6,
            "max": [
                5
            ],
            "min": [
                0
            ],
            "type": "SCALAR"
        },
        {
            "bufferView": 1,
            "byteOffset": 5976,
            "componentType": 5126,
            "count": 6,
            "max": [
                0.5755375027656555,
                0.8172678351402283,
                0.028818299993872644
            ],
            "min": [
                0.5755372047424316,
                0.8172675371170044,
                0.02881729044020176
            ],
            "type": "VEC3"
        },
        {
            "bufferView": 1,
            "byteOffset": 6048,
            "componentType": 5126,
            "count": 6,
            "max": [
                -0.1748834997415543,
                1.1157180070877076,
                0.536007821559906
            ],
            "min": [
                -0.2500564157962799,
                1.065843939781189,
                0.4185677170753479
            ],
            "type": "VEC3"
        },
        {
            "bufferView": 0,
            "byteOffset": 528,
            "componentType": 5123,
            "count": 6,
            "max": [
                5
            ],
            "min": [
                0
            ],
            "type": "SCALAR"
        },
        {
            "bufferView": 1,
            "byteOffset": 6120,
            "componentType": 5126,
            "count": 6,
            "max": [
                0.575538694858551,
                0.817267894744873,
                0.02881740964949131
            ],
            "min": [
                0.5755369067192078,
                0.8172667026519775,
                0.02881634049117565
            ],
            "type": "VEC3"
        },
        {
            "bufferView": 1,
            "byteOffset": 6192,
            "componentType": 5126,
            "count": 6,
            "max": [
                -0.14450719952583314,
                1.098950982093811,
                0.4211794137954712
            ],
            "min": [
                -0.21968020498752598,
                1.0490779876708985,
                0.3037393093109131
            ],
            "type": "VEC3"
        },
        {
            "bufferView": 0,
            "byteOffset": 540,
            "componentType": 5123,
            "count": 6,
            "max": [
                3
            ],
            "min": [
                0
            ],
            "type": "SCALAR"
        },
        {
            "bufferView": 1,
            "byteOffset": 6264,
            "componentType": 5126,
            "count": 4,
            "max": [
                0.3687480092048645,
                -0.05674123018980026,
                -0.9277960062026978
            ],
            "min": [
                0.3687478005886078,
                -0.05674123018980026,
                -0.9277961254119872
            ],
            "type": "VEC3"
        },
        {
            "bufferView": 1,
            "byteOffset": 6312,
            "componentType": 5126,
            "count": 4,
            "max": [
                0.22137080132961274,
                -0.10561560094356536,
                -0.9759016036987304
            ],
            "min": [
                0.15468530356884004,
                -0.33304670453071597,
                -0.9911826252937316
            ],
            "type": "VEC3"
        }
    ],
    "materials": [
        {
            "pbrMetallicRoughness": {
                "baseColorFactor": [
                    0.0,
                    0.0,
                    0.0,
                    1.0
                ],
                "metallicFactor": 0.0
            },
            "emissiveFactor": [
                0.0,
                0.0,
                0.0
            ],
            "name": "case-effect"
        },
        {
            "pbrMetallicRoughness": {
                "baseColorFactor": [
                    0.7552509903907776,
                    0.6626604199409485,
                    0.854979395866394,
                    1.0
                ],
                "metallicFactor": 0.0
            },
            "emissiveFactor": [
                0.0,
                0.0,
                0.0
            ],
            "name": "screen-effect"
        },
        {
            "pbrMetallicRoughness": {
                "baseColorFactor": [
                    0.06413441151380539,
                    0.05225646123290062,
                    0.06997822225093842,
                    1.0
                ],
                "metallicFactor": 0.0
            },
            "emissiveFactor": [
                0.0,
                0.0,
                0.0
            ],
            "name": "power-effect"
        },
        {
            "pbrMetallicRoughness": {
                "baseColorFactor": [
                    0.02253560908138752,
                    0.8000001311302185,
                    0.0,
                    1.0
                ],
                "metallicFactor": 0.0
            },
            "emissiveFactor": [
                0.0,
                0.0,
                0.0
            ],
            "name": "volume_up-effect"
        },
        {
            "pbrMetallicRoughness": {
                "baseColorFactor": [
                    0.8000001311302185,
                    0.002137197880074382,
                    0.0,
                    1.0
                ],
                "metallicFactor": 0.0
            },
            "emissiveFactor": [
                0.0,
                0.0,
                0.0
            ],
            "name": "volume_down-effect"
        },
        {
            "pbrMetallicRoughness": {
                "baseColorFactor": [
                    0.8000001311302185,
                    0.6607344150543213,
                    0.0016467979876324537,
                    1.0
                ],
                "metallicFactor": 0.0
            },
            "emissiveFactor": [
                0.0,
                0.0,
                0.0
            ],
            "name": "power_jack-effect"
        }
    ],
    "bufferViews": [
        {
            "buffer": 0,
            "byteOffset": 6360,
            "byteLength": 552,
            "target": 34963
        },
        {
            "buffer": 0,
            "byteOffset": 0,
            "byteLength": 6360,
            "byteStride": 12,
            "target": 34962
        }
    ],
    "buffers": [
        {
            "byteLength": 6912,
            "uri": "data:application/octet-stream;base64,"
        }
    ]
}
